<?xml version="1.0" standalone="no"?>
<!DOCTYPE svg PUBLIC "-//W3C//DTD SVG 20010904//EN"
 "http://www.w3.org/TR/2001/REC-SVG-20010904/DTD/svg10.dtd">
<svg version="1.0" xmlns="http://www.w3.org/2000/svg"
 width="1024.000000pt" height="1024.000000pt" viewBox="0 0 1024.000000 1024.000000"
 preserveAspectRatio="xMidYMid meet">
<metadata>
Created by potrace 1.11, written by Peter Selinger 2001-2013
</metadata>
<g transform="translate(0.000000,1024.000000) scale(0.100000,-0.100000)"
fill="#000000" stroke="none">
<path d="M854 10224 c-111 -18 -261 -74 -358 -131 -105 -63 -252 -204 -322
-309 -62 -93 -124 -235 -151 -346 -17 -69 -18 -291 -21 -4268 -3 -3207 -1
-4215 9 -4280 32 -231 135 -435 301 -596 141 -137 313 -231 501 -271 78 -17
297 -18 4307 -18 4010 0 4229 1 4307 18 194 42 379 144 519 289 152 155 241
330 279 548 13 74 15 606 15 4255 0 3670 -2 4181 -15 4263 -36 224 -141 421
-311 583 -146 140 -330 230 -539 264 -130 21 -8395 21 -8521 -1z m7268 -1769
c14 -13 30 -44 37 -67 43 -141 30 -550 -29 -963 -26 -175 -137 -835 -230
-1355 -149 -838 -306 -1787 -369 -2240 -71 -503 -106 -915 -122 -1441 -13
-410 -16 -423 -89 -474 -66 -46 -115 -58 -258 -63 -249 -8 -473 31 -624 110
-185 96 -272 244 -324 553 -21 123 -24 494 -6 690 35 371 136 1053 208 1401
l6 31 -159 7 c-789 33 -1437 46 -1570 30 l-52 -7 -65 -266 c-206 -839 -303
-1433 -325 -1991 -8 -194 -12 -233 -31 -283 -75 -199 -294 -311 -685 -353
-201 -21 -375 -16 -430 13 -74 39 -108 93 -130 206 -42 222 -46 855 -6 1134
44 311 134 770 241 1222 22 96 39 175 37 177 -1 2 -50 -4 -107 -12 -194 -27
-444 -54 -566 -60 -130 -7 -186 3 -204 36 -14 26 -12 108 4 153 53 147 248
346 472 480 130 78 397 187 567 232 l67 18 26 86 c211 707 427 1320 588 1675
20 43 36 81 36 84 0 10 -318 -9 -462 -29 -261 -34 -492 -97 -684 -184 -110
-50 -245 -143 -414 -284 -194 -162 -232 -173 -309 -85 -123 140 -132 433 -21
654 194 384 811 671 1795 834 101 17 390 50 565 66 173 15 650 32 689 25 55
-10 148 -62 190 -105 78 -80 89 -221 37 -450 -37 -164 -93 -296 -151 -360 -18
-19 -29 -57 -49 -165 -49 -271 -232 -962 -412 -1556 -4 -15 68 -17 783 -25
434 -4 821 -8 862 -9 l74 0 38 150 c214 836 427 1478 628 1899 113 235 189
350 358 541 229 258 491 404 575 320z"/>
</g>
</svg>
